<svg width="20" height="20" viewBox="0 0 20 20" fill="none" xmlns="http://www.w3.org/2000/svg">
<path d="M10 0.25C8.07164 0.25 6.18657 0.821828 4.58319 1.89317C2.97982 2.96451 1.73013 4.48726 0.992179 6.26884C0.254225 8.05042 0.061142 10.0108 0.437348 11.9021C0.813554 13.7934 1.74215 15.5307 3.10571 16.8943C4.46928 18.2579 6.20656 19.1865 8.09787 19.5627C9.98919 19.9389 11.9496 19.7458 13.7312 19.0078C15.5127 18.2699 17.0355 17.0202 18.1068 15.4168C19.1782 13.8134 19.75 11.9284 19.75 10C19.7473 7.41498 18.7192 4.93661 16.8913 3.10872C15.0634 1.28084 12.585 0.25273 10 0.25ZM10 18.25C8.36831 18.25 6.77326 17.7661 5.41655 16.8596C4.05984 15.9531 3.00242 14.6646 2.378 13.1571C1.75358 11.6496 1.5902 9.99085 1.90853 8.3905C2.22685 6.79016 3.01259 5.32015 4.16637 4.16637C5.32016 3.01259 6.79017 2.22685 8.39051 1.90852C9.99085 1.59019 11.6497 1.75357 13.1571 2.37799C14.6646 3.00242 15.9531 4.05984 16.8596 5.41655C17.7661 6.77325 18.25 8.3683 18.25 10C18.2475 12.1873 17.3775 14.2843 15.8309 15.8309C14.2843 17.3775 12.1873 18.2475 10 18.25ZM16 10C16 10.1989 15.921 10.3897 15.7803 10.5303C15.6397 10.671 15.4489 10.75 15.25 10.75H10C9.80109 10.75 9.61033 10.671 9.46967 10.5303C9.32902 10.3897 9.25 10.1989 9.25 10V4.75C9.25 4.55109 9.32902 4.36032 9.46967 4.21967C9.61033 4.07902 9.80109 4 10 4C10.1989 4 10.3897 4.07902 10.5303 4.21967C10.671 4.36032 10.75 4.55109 10.75 4.75V9.25H15.25C15.4489 9.25 15.6397 9.32902 15.7803 9.46967C15.921 9.61032 16 9.80109 16 10Z" fill="#262626"/>
</svg>
