<svg width="178" height="64" viewBox="0 0 178 64" fill="none" xmlns="http://www.w3.org/2000/svg">
<g clip-path="url(#clip0_4054_1688)">
<path d="M44.27 26.0923C44.2665 23.6034 43.7496 21.1419 42.7513 18.8612C41.753 16.5804 40.2949 14.5293 38.4677 12.8357C38.4402 12.8068 38.407 12.7837 38.378 12.7549L37.5843 12.0852C34.3554 9.44239 30.3087 7.99805 26.1329 7.99805C21.9572 7.99805 17.9105 9.44239 14.6816 12.0852L13.8878 12.7549C13.8589 12.7837 13.8257 12.8068 13.7982 12.8357C11.6682 14.7831 10.0427 17.2165 9.06064 19.9278C8.07861 22.6391 7.76934 25.5475 8.15929 28.4042L8.24025 29.0319C8.24025 29.0464 8.24025 29.0738 8.24025 29.0983C8.61913 31.3789 9.43926 33.5641 10.6549 35.5318C10.7995 35.7757 10.9599 36.0152 11.1204 36.2534C11.1855 36.3515 11.252 36.4453 11.3171 36.542L11.8766 37.3299C15.0951 35.8305 17.1006 32.8 17.8047 31.5718C17.8235 31.5444 17.838 31.5112 17.8568 31.4824C17.8883 31.4329 17.9164 31.3813 17.9406 31.328C17.9927 31.2342 18.0303 31.1634 18.0577 31.1129C18.2269 30.7882 18.3874 30.465 18.5334 30.1316C19.245 28.5139 19.6766 26.7875 19.8101 25.0258C19.8164 24.9949 19.8197 24.9635 19.8203 24.932C21.5114 24.4959 23.2431 24.2348 24.9878 24.1527H27.2607C29.006 24.2347 30.7381 24.4958 32.4297 24.932C32.4305 24.9634 32.4334 24.9948 32.4384 25.0258C32.5757 26.7854 33.0098 28.5091 33.7223 30.1244C33.8669 30.4577 34.0274 30.781 34.1966 31.1057C34.2255 31.1562 34.2631 31.2269 34.3151 31.3207C34.3388 31.3744 34.3669 31.426 34.399 31.4752C34.4178 31.504 34.4323 31.5372 34.451 31.5646C35.161 32.7927 37.1664 35.8233 40.3791 37.3227L40.9387 36.5348C41.0037 36.441 41.0703 36.3472 41.1353 36.2462C41.2958 36.008 41.4505 35.7685 41.6009 35.5246C42.8159 33.5566 43.636 31.3715 44.0155 29.0911C44.0155 29.0666 44.0155 29.0392 44.0155 29.0247L44.095 28.397C44.2034 27.6333 44.2618 26.8635 44.27 26.0923ZM15.9121 30.1244C15.0875 31.6737 13.9613 33.043 12.5996 34.1522C12.5659 34.103 12.5359 34.0514 12.5099 33.9978C12.2988 33.6471 12.1007 33.2906 11.9229 32.9154C11.9041 32.8779 11.881 32.8259 11.8622 32.7841C11.693 32.4219 11.5426 32.0625 11.4009 31.7003C11.3691 31.6108 11.3315 31.5127 11.2983 31.4232C11.1537 31.0393 11.0351 30.6454 10.9267 30.2471C10.9191 30.2067 10.9079 30.1671 10.8934 30.1287C10.8925 30.1158 10.8895 30.1032 10.8848 30.0912H10.8992C10.8703 29.97 10.837 29.8531 10.8052 29.7347C10.7734 29.6164 10.7532 29.4865 10.73 29.3696C12.7395 27.8073 14.9785 26.5641 17.3681 25.6839C17.1484 27.2381 16.6555 28.7413 15.9121 30.1244ZM10.3917 26.6969C10.3816 26.4949 10.3671 26.2929 10.3671 26.0923C10.3671 25.9177 10.3859 25.7546 10.3917 25.5814C10.4004 25.2379 10.4105 24.9002 10.4423 24.5626C10.4669 24.3432 10.5088 24.1181 10.5421 23.8929C10.5797 23.6043 10.6216 23.3157 10.678 23.0271C10.7199 22.8019 10.7807 22.5855 10.8327 22.3603C10.9036 22.0847 10.9773 21.799 11.0583 21.5175C11.1248 21.3054 11.2028 21.099 11.2751 20.8927C11.3735 20.617 11.4761 20.3298 11.5932 20.0484C11.6742 19.8608 11.7624 19.6646 11.8477 19.4813C11.9836 19.1927 12.1195 18.9185 12.2699 18.6371C12.3639 18.4639 12.4637 18.2907 12.5591 18.1175C12.7282 17.8404 12.9018 17.5691 13.0854 17.2921C13.1938 17.1376 13.2965 16.9818 13.4093 16.8274C13.6117 16.5561 13.8228 16.2934 14.044 16.0308C14.153 15.8882 14.2693 15.7514 14.3924 15.6209C14.4488 15.5603 14.5096 15.504 14.566 15.442C16.336 17.6349 17.36 20.3337 17.4895 23.1468C14.9608 23.9736 12.5689 25.17 10.3917 26.6969ZM25.0023 21.7903C23.2564 21.8556 21.5209 22.0895 19.8203 22.4888C19.5595 19.3102 18.3282 16.288 16.2923 13.83C18.7755 11.8263 21.8166 10.6341 25.0023 10.4155V21.7903ZM32.45 22.4888C30.7467 22.091 29.0088 21.859 27.2607 21.7961V10.4199C30.4468 10.6384 33.4884 11.8306 35.9721 13.8343C33.9381 16.2934 32.7087 19.3161 32.45 22.4945V22.4888ZM41.465 29.729C41.4332 29.8473 41.3999 29.9642 41.371 30.0854H41.3855C41.3807 30.0974 41.3777 30.1101 41.3768 30.1229C41.3623 30.1614 41.3512 30.2009 41.3435 30.2413C41.2351 30.6396 41.1136 31.0336 40.9719 31.4174C40.9387 31.5069 40.9011 31.605 40.8693 31.6945C40.7247 32.0553 40.5801 32.4161 40.408 32.7783C40.3892 32.8202 40.3661 32.8721 40.3473 32.9096C40.168 33.2848 39.9714 33.6413 39.7603 33.992C39.7343 34.0456 39.7043 34.0972 39.6707 34.1464C38.3095 33.0389 37.1834 31.6716 36.3582 30.1244C35.6142 28.74 35.1213 27.2352 34.9022 25.6795C37.2917 26.5598 39.5308 27.803 41.5402 29.3653C41.517 29.4865 41.4939 29.6092 41.465 29.7347V29.729ZM41.8785 26.6912C39.7009 25.1641 37.3085 23.9677 34.7793 23.1411C34.9082 20.3281 35.9318 17.6293 37.7014 15.4362C37.7578 15.4982 37.8199 15.5545 37.8763 15.6151C37.9991 15.7466 38.1149 15.8844 38.2233 16.0279C38.4445 16.2905 38.6571 16.5532 38.8581 16.8245C38.9708 16.9789 39.0735 17.1348 39.1819 17.2892C39.3656 17.5663 39.5391 17.8376 39.7082 18.1146C39.8066 18.2878 39.9049 18.461 39.9974 18.6342C40.142 18.9156 40.2866 19.1927 40.4211 19.4784C40.5049 19.6617 40.5946 19.8579 40.6741 20.0456C40.7926 20.327 40.8953 20.6141 40.9936 20.8898C41.0688 21.0962 41.1382 21.3025 41.2105 21.5147C41.2944 21.7961 41.3652 22.0818 41.4361 22.3574C41.4881 22.5826 41.5488 22.799 41.5908 23.0242C41.6472 23.3128 41.6891 23.6014 41.7267 23.8901C41.7599 24.1152 41.8019 24.3403 41.825 24.5597C41.8583 24.8974 41.8684 25.2351 41.8771 25.5785C41.8771 25.7517 41.9002 25.9148 41.9002 26.0894C41.9016 26.2929 41.8886 26.4949 41.8785 26.6969V26.6912Z" fill="white"/>
<path d="M27.2634 27.1426H25.0078V36.4695H27.2634V27.1426Z" fill="white"/>
<path d="M27.1605 28.2781C27.7118 28.3089 28.2603 28.357 28.8059 28.4224C29.0817 29.5772 29.4606 30.7049 29.938 31.7921C30.2237 32.4331 30.5417 33.0593 30.8908 33.6682C32.082 35.7204 33.6273 37.5461 35.4555 39.0612C33.0365 41.4251 29.0864 45.6881 26.1339 50.866C23.1814 45.6881 19.2328 41.4251 16.8124 39.0612C18.6421 37.5455 20.1889 35.7187 21.3813 33.6653C21.75 33.0318 22.1129 32.2843 22.337 31.7893C22.8115 30.7054 23.1884 29.5816 23.4634 28.4311C24.009 28.3618 24.5574 28.3137 25.1088 28.2868H27.1605M27.2198 26.0355H25.0509C23.8766 26.0955 22.7082 26.2402 21.5548 26.4684C21.3229 27.992 20.8917 29.4786 20.2723 30.8902C20.0612 31.365 19.7374 32.0202 19.4323 32.5455C18.6515 33.8832 16.5752 37.0062 13.1919 38.7827C13.1919 38.7827 22.3255 46.502 26.1397 56.0079C29.9496 46.4962 39.0832 38.7841 39.0832 38.7841C35.6955 36.9961 33.6221 33.8775 32.8384 32.5354C32.5333 32.0101 32.2095 31.3549 31.9984 30.8801C31.379 29.4685 30.9478 27.9819 30.7159 26.4583C29.5625 26.2301 28.3941 26.0854 27.2198 26.0254V26.0355Z" fill="white"/>
<path d="M26.134 42.6027C25.4148 42.6024 24.7119 42.3893 24.1141 41.9903C23.5163 41.5913 23.0504 41.0244 22.7754 40.3612C22.5004 39.6979 22.4286 38.9682 22.5691 38.2643C22.7095 37.5603 23.056 36.9137 23.5646 36.4063C24.0732 35.8988 24.7212 35.5533 25.4265 35.4134C26.1319 35.2735 26.8629 35.3454 27.5273 35.6202C28.1917 35.8949 28.7595 36.3601 29.159 36.9569C29.5585 37.5538 29.7718 38.2554 29.7718 38.9732C29.7706 39.9357 29.3869 40.8584 28.7049 41.5389C28.0229 42.2193 27.0983 42.6019 26.134 42.6027ZM26.134 37.595C25.8605 37.595 25.5932 37.676 25.3659 37.8276C25.1385 37.9793 24.9614 38.1949 24.8568 38.447C24.7522 38.6992 24.7249 38.9767 24.7784 39.2444C24.8318 39.512 24.9636 39.7578 25.1571 39.9507C25.3505 40.1436 25.5969 40.2749 25.8652 40.328C26.1334 40.381 26.4114 40.3535 26.6639 40.2489C26.9165 40.1442 27.1322 39.9672 27.284 39.7401C27.4357 39.513 27.5165 39.2462 27.5162 38.9732C27.5158 38.6076 27.37 38.257 27.1108 37.9986C26.8517 37.7402 26.5003 37.595 26.134 37.595Z" fill="white"/>
<path d="M65.8337 10.0645V29.6521H62.7526V21.3772H54.2552V29.6521H51.187V10.0645H54.2552V18.3278H62.7526V10.0645H65.8337Z" fill="white"/>
<path d="M68.666 19.8789C68.666 14.2897 73.2205 9.7207 78.8088 9.7207C84.3971 9.7207 88.9617 14.294 88.9617 19.8789C88.9617 25.4205 84.3841 29.965 78.7958 29.965C73.2075 29.965 68.666 25.4249 68.666 19.8789ZM85.8444 19.8558C85.8493 18.4661 85.441 17.1062 84.6712 15.9482C83.9015 14.7902 82.8048 13.8861 81.5201 13.3504C80.2353 12.8147 78.8202 12.6714 77.4539 12.9387C76.0875 13.206 74.8313 13.8719 73.8443 14.852C72.8572 15.8322 72.1836 17.0825 71.9088 18.4449C71.634 19.8073 71.7702 21.2204 72.3003 22.5055C72.8305 23.7905 73.7306 24.8897 74.8868 25.664C76.0431 26.4382 77.4035 26.8527 78.7958 26.855C80.6566 26.8498 82.4403 26.1124 83.7599 24.8029C85.0794 23.4934 85.8285 21.7174 85.8444 19.8601V19.8558Z" fill="white"/>
<path d="M91.3301 19.8789C91.3301 14.2897 95.8831 9.7207 101.471 9.7207C107.06 9.7207 111.624 14.294 111.624 19.8789C111.624 25.4205 107.048 29.965 101.46 29.965C95.8716 29.965 91.3301 25.4249 91.3301 19.8789ZM108.508 19.8558C108.513 18.4661 108.105 17.1062 107.335 15.9482C106.566 14.7902 105.469 13.8861 104.184 13.3504C102.899 12.8147 101.484 12.6714 100.118 12.9387C98.7516 13.206 97.4954 13.8719 96.5083 14.852C95.5213 15.8322 94.8477 17.0825 94.5729 18.4449C94.298 19.8073 94.4343 21.2204 94.9644 22.5055C95.4945 23.7905 96.3947 24.8897 97.5509 25.664C98.7071 26.4382 100.068 26.8527 101.46 26.855C105.338 26.8593 108.508 23.7119 108.508 19.8601V19.8558Z" fill="white"/>
<path d="M114.447 10.0645H121.01C124.808 10.0645 127.912 12.968 127.912 16.5297C127.912 20.0163 124.808 22.8593 121.01 22.8593H117.526V29.6521H114.447V10.0645ZM124.832 16.5052C124.832 14.6291 123.116 13.1152 121.01 13.1152H117.526V19.8099L121.008 19.8215C123.122 19.8345 124.831 18.3394 124.831 16.5052H124.832Z" fill="white"/>
<path d="M129.224 26.2151L131.653 24.4761C132.529 26.0073 134.16 26.8833 136.048 26.8833C138.252 26.8833 139.919 25.8255 139.919 24.3304C139.919 22.5207 137.338 21.4268 135.049 20.4426C132.749 19.4223 130.191 18.2303 130.191 15.1564C130.191 11.9483 132.98 9.71289 136.509 9.71289C139.31 9.71289 141.404 11.0608 142.208 13.2125L139.919 14.7913C139.31 13.4679 137.96 12.7262 136.534 12.7262C134.732 12.7262 133.295 13.8446 133.295 15.23C133.295 16.7611 135.11 17.3081 137.495 18.3284C140.601 19.6893 143.011 21.1829 143.011 24.2698C143.011 27.7448 139.992 29.9817 136.011 29.9817C132.791 29.9802 130.343 28.475 129.224 26.2151Z" fill="white"/>
<path d="M51.187 44.1799C51.187 38.6628 55.8008 34.0332 61.3168 34.0332C63.8601 34.0693 66.2111 35.1502 68.1341 37.0219L66.3441 39.4406C64.9691 38.0668 63.1791 37.1561 61.2546 37.1561C57.7007 37.1561 54.3043 40.2661 54.3043 44.1914C54.3043 48.1413 57.7484 51.1906 61.2676 51.1906C63.276 51.1906 65.0052 50.1948 66.3571 48.8571L68.1341 51.3392C66.4424 53.0046 64.2866 54.2803 61.3645 54.2803C55.8008 54.2775 51.187 49.7085 51.187 44.1799Z" fill="white"/>
<path d="M69.2847 44.1914C69.2847 38.6022 73.8392 34.0332 79.4275 34.0332C85.0158 34.0332 89.5775 38.6022 89.5775 44.1914C89.5775 49.733 84.9999 54.2775 79.4116 54.2775C73.8233 54.2775 69.2847 49.733 69.2847 44.1914ZM86.4631 44.1669C86.468 42.7772 86.0597 41.4173 85.2899 40.2592C84.5201 39.1012 83.4235 38.1972 82.1387 37.6615C80.854 37.1257 79.4389 36.9825 78.0725 37.2498C76.7062 37.5171 75.45 38.1829 74.4629 39.1631C73.4758 40.1432 72.8023 41.3936 72.5274 42.756C72.2526 44.1183 72.3889 45.5315 72.919 46.8165C73.4491 48.1016 74.3492 49.2008 75.5055 49.975C76.6617 50.7493 78.0221 51.1638 79.4145 51.1661C81.2761 51.1612 83.0607 50.4233 84.3804 49.1128C85.7002 47.8023 86.4486 46.025 86.4631 44.1669Z" fill="white"/>
<path d="M104.234 50.9051V53.9674H92.4014V34.3711H95.4811V50.9051H104.234Z" fill="white"/>
<path d="M119.01 50.9051V53.9674H107.177V34.3711H110.254V50.9051H119.01Z" fill="white"/>
<path d="M125.032 37.3973V42.4166H132.459V45.4789H125.032V50.9051H133.639V53.9674H121.952V34.3711H133.639V37.4017L125.032 37.3973Z" fill="white"/>
<path d="M155.479 44.7976C155.479 50.6178 151.241 54.2876 146.14 54.2876C140.43 54.2876 135.902 49.7432 135.902 44.1857C135.902 38.6282 140.455 34.0391 146.03 34.0391C148.503 34.0506 151.326 35.2426 153.177 37.0408L151.461 39.5966C149.927 38.0899 147.858 37.1432 145.994 37.1432C142.416 37.1432 139.031 40.1334 139.031 44.1915C139.031 48.0317 142.086 51.1907 146.275 51.1907C149.646 51.1936 152.184 49.1357 152.184 46.1426V46.082H146.111V43.2664H155.401C155.453 43.7751 155.479 44.2862 155.479 44.7976Z" fill="white"/>
<path d="M161.391 37.3973V42.4166H168.819V45.4789H161.391V50.9051H169.999V53.9674H158.312V34.3711H169.999V37.4017L161.391 37.3973Z" fill="white"/>
<path d="M156.9 16.1428H153.864V26.021H151.374V16.1428H148.338V13.6895H156.908L156.9 16.1428Z" fill="white"/>
<path d="M157.143 19.8694C157.138 18.5987 157.51 17.3549 158.214 16.2959C158.918 15.2369 159.92 14.4103 161.095 13.9208C162.27 13.4314 163.564 13.3012 164.813 13.5467C166.063 13.7922 167.211 14.4024 168.112 15.2999C169.013 16.1974 169.627 17.3419 169.876 18.5881C170.125 19.8343 169.997 21.1262 169.509 22.2999C169.022 23.4737 168.196 24.4765 167.136 25.1812C166.077 25.8858 164.832 26.2607 163.558 26.2581C161.862 26.2487 160.238 25.573 159.038 24.3773C157.837 23.1816 157.156 21.5622 157.143 19.8694ZM167.484 19.8535C167.487 19.0801 167.259 18.3233 166.831 17.6789C166.402 17.0345 165.792 16.5314 165.077 16.2332C164.362 15.9351 163.575 15.8553 162.814 16.004C162.054 16.1527 161.355 16.5231 160.805 17.0685C160.256 17.6138 159.881 18.3096 159.728 19.0677C159.574 19.8259 159.65 20.6123 159.945 21.3276C160.239 22.0428 160.74 22.6548 161.383 23.086C162.027 23.5171 162.784 23.7482 163.558 23.7499C164.595 23.7484 165.59 23.3381 166.325 22.6083C167.06 21.8786 167.477 20.8884 167.484 19.8535Z" fill="white"/>
<path d="M169.998 28.1211H147.952V29.9813H169.998V28.1211Z" fill="white"/>
<path d="M169.998 9.71094H147.952V11.5711H169.998V9.71094Z" fill="white"/>
</g>
<defs>
<clipPath id="clip0_4054_1688">
<rect width="162" height="48" fill="white" transform="translate(8 8)"/>
</clipPath>
</defs>
</svg>
