<svg width="48" height="48" viewBox="0 0 48 48" fill="none" xmlns="http://www.w3.org/2000/svg">
<path d="M28.5 41.9984C28.5 42.3963 28.3419 42.7778 28.0606 43.0591C27.7793 43.3404 27.3978 43.4984 27 43.4984H21C20.6021 43.4984 20.2206 43.3404 19.9393 43.0591C19.658 42.7778 19.5 42.3963 19.5 41.9984C19.5 41.6006 19.658 41.2191 19.9393 40.9378C20.2206 40.6565 20.6021 40.4984 21 40.4984H27C27.3978 40.4984 27.7793 40.6565 28.0606 40.9378C28.3419 41.2191 28.5 41.6006 28.5 41.9984ZM24 20.9984C24.445 20.9984 24.88 20.8665 25.25 20.6192C25.62 20.372 25.9084 20.0206 26.0787 19.6095C26.249 19.1983 26.2935 18.7459 26.2067 18.3095C26.1199 17.873 25.9056 17.4721 25.5909 17.1574C25.2763 16.8428 24.8754 16.6285 24.4389 16.5417C24.0024 16.4548 23.55 16.4994 23.1389 16.6697C22.7278 16.84 22.3764 17.1284 22.1291 17.4984C21.8819 17.8684 21.75 18.3034 21.75 18.7484C21.75 19.3452 21.987 19.9175 22.409 20.3394C22.8309 20.7614 23.4032 20.9984 24 20.9984ZM41.9287 29.2166L39.6112 39.6472C39.5013 40.1425 39.2675 40.6019 38.9317 40.9823C38.596 41.3627 38.1692 41.6517 37.6914 41.8223C37.2136 41.993 36.7003 42.0396 36.1995 41.958C35.6988 41.8763 35.2269 41.6689 34.8281 41.3553L29.7206 37.4984H18.2831L13.1718 41.3553C12.773 41.6689 12.3011 41.8763 11.8004 41.958C11.2996 42.0396 10.7863 41.993 10.3085 41.8223C9.83065 41.6517 9.40391 41.3627 9.06817 40.9823C8.73242 40.6019 8.49865 40.1425 8.3887 39.6472L6.0712 29.2166C5.9729 28.7689 5.97786 28.3048 6.08572 27.8594C6.19358 27.414 6.4015 26.999 6.6937 26.6459L12.0487 20.2222C12.2284 17.8614 12.7704 15.5424 13.6556 13.3466C16.0743 7.28281 20.4056 3.47843 22.1625 2.12468C22.6883 1.71721 23.3347 1.49609 24 1.49609C24.6652 1.49609 25.3116 1.71721 25.8375 2.12468C27.5887 3.47843 31.9256 7.28281 34.3443 13.3466C35.2295 15.5424 35.7715 17.8614 35.9512 20.2222L41.3062 26.6459C41.5984 26.999 41.8063 27.414 41.9142 27.8594C42.022 28.3048 42.027 28.7689 41.9287 29.2166ZM18.6431 34.4984H29.3568C33.3168 27.4597 34.0575 20.7209 31.5581 14.4584C29.3531 8.93093 25.2168 5.43593 24 4.49843C22.7793 5.43593 18.6431 8.93093 16.4381 14.4584C13.9424 20.7209 14.6831 27.4597 18.6431 34.4984ZM15.8306 35.5953C13.8118 31.9266 12.5868 28.3209 12.1556 24.7784L8.99995 28.5659L11.3174 38.9984L11.3512 38.9741L15.8306 35.5953ZM39 28.5659L35.8443 24.7784C35.4168 28.3134 34.1943 31.9191 32.1768 35.5953L36.6487 38.9703L36.6825 38.9947L39 28.5659Z" fill="url(#paint0_linear_4208_571)"/>
<defs>
<linearGradient id="paint0_linear_4208_571" x1="23.2139" y1="1.49609" x2="23.2139" y2="59.3912" gradientUnits="userSpaceOnUse">
<stop stop-color="white"/>
<stop offset="1" stop-color="#9E9B9B"/>
</linearGradient>
</defs>
</svg>
