<svg width="109" height="104" viewBox="0 0 109 104" fill="none" xmlns="http://www.w3.org/2000/svg">
<g filter="url(#filter0_d_4208_686)">
<path d="M63.2951 56C61.3934 56 59.8721 55.4353 58.7311 54.3059C57.6536 53.1765 57.1148 51.5451 57.1148 49.4118C57.1148 45.3961 58.0022 41.9765 59.7771 39.1529C61.6153 36.2667 64.2142 33.8824 67.5738 32L68.5246 33.4118C66.9399 34.4784 65.5771 35.6392 64.4361 36.8941C63.2951 38.149 62.4077 39.5294 61.7738 41.0353C61.2033 42.5412 60.918 44.2353 60.918 46.1176L63.7705 45.1765C65.2284 45.1765 66.4645 45.6784 67.4787 46.6823C68.4929 47.6863 69 48.9098 69 50.3529C69 51.9843 68.4612 53.3333 67.3836 54.4C66.306 55.4667 64.9432 56 63.2951 56ZM46.1803 56C44.2787 56 42.7574 55.4353 41.6164 54.3059C40.5388 53.1765 40 51.5451 40 49.4118C40 45.3961 40.8874 41.9765 42.6623 39.1529C44.5005 36.2667 47.0995 33.8824 50.459 32L51.4098 33.4118C49.8251 34.4784 48.4623 35.6392 47.3213 36.8941C46.1803 38.149 45.2929 39.5294 44.659 41.0353C44.0885 42.5412 43.8033 44.2353 43.8033 46.1176L46.6557 45.1765C48.1137 45.1765 49.3497 45.6784 50.3639 46.6823C51.3781 47.6863 51.8852 48.9098 51.8852 50.3529C51.8852 51.9843 51.3464 53.3333 50.2689 54.4C49.1913 55.4667 47.8284 56 46.1803 56Z" fill="white"/>
</g>
<defs>
<filter id="filter0_d_4208_686" x="0" y="0" width="109" height="104" filterUnits="userSpaceOnUse" color-interpolation-filters="sRGB">
<feFlood flood-opacity="0" result="BackgroundImageFix"/>
<feColorMatrix in="SourceAlpha" type="matrix" values="0 0 0 0 0 0 0 0 0 0 0 0 0 0 0 0 0 0 127 0" result="hardAlpha"/>
<feOffset dy="8"/>
<feGaussianBlur stdDeviation="20"/>
<feComposite in2="hardAlpha" operator="out"/>
<feColorMatrix type="matrix" values="0 0 0 0 0 0 0 0 0 0 0 0 0 0 0 0 0 0 0.25 0"/>
<feBlend mode="normal" in2="BackgroundImageFix" result="effect1_dropShadow_4208_686"/>
<feBlend mode="normal" in="SourceGraphic" in2="effect1_dropShadow_4208_686" result="shape"/>
</filter>
</defs>
</svg>
