<svg width="38" height="38" viewBox="0 0 38 38" fill="none" xmlns="http://www.w3.org/2000/svg">
<path d="M37.972 2.83624C37.9275 2.10485 37.617 1.41502 37.0988 0.896895C36.5807 0.378772 35.8909 0.0681864 35.1595 0.0237396C32.8007 -0.116885 26.7726 0.0987394 21.7701 5.09936L20.8795 6.00124H9.94261C9.54713 5.99901 9.15515 6.07544 8.78948 6.22609C8.42382 6.37673 8.09175 6.59859 7.81261 6.87874L1.38135 13.3137C0.986945 13.7079 0.710184 14.2041 0.582133 14.7468C0.454083 15.2895 0.47981 15.8572 0.656428 16.386C0.833045 16.9149 1.15356 17.3841 1.58201 17.741C2.01046 18.0978 2.52988 18.3282 3.08198 18.4062L10.2951 19.4131L18.5845 27.7025L19.5914 34.9194C19.6688 35.4715 19.8991 35.991 20.2563 36.4191C20.6135 36.8471 21.0833 37.1668 21.6126 37.3419C21.9209 37.4449 22.2438 37.4974 22.5689 37.4975C22.9624 37.4982 23.3523 37.4211 23.7159 37.2705C24.0796 37.1199 24.4098 36.8988 24.6876 36.62L31.1226 30.1887C31.4028 29.9096 31.6246 29.5775 31.7753 29.2119C31.9259 28.8462 32.0023 28.4542 32.0001 28.0587V17.1219L32.8945 16.2275C37.897 11.225 38.1126 5.19687 37.972 2.83624ZM9.94261 9.00124H17.8795L10.4676 16.4112L3.5001 15.44L9.94261 9.00124ZM23.8945 7.22937C25.3358 5.77912 27.0701 4.65313 28.9813 3.92659C30.8926 3.20005 32.9368 2.88969 34.9776 3.01624C35.1091 5.05808 34.8019 7.1044 34.0768 9.01767C33.3518 10.931 32.2255 12.6669 30.7739 14.1087L20.0001 24.8787L13.1226 18.0012L23.8945 7.22937ZM29.0001 28.0587L22.5632 34.5012L21.5901 27.5319L29.0001 20.1219V28.0587ZM15.0951 29.84C14.2514 31.6887 11.4295 36.0012 3.5001 36.0012C3.10228 36.0012 2.72075 35.8432 2.43945 35.5619C2.15814 35.2806 2.0001 34.8991 2.0001 34.5012C2.0001 26.5719 6.31261 23.75 8.16136 22.9044C8.34061 22.8226 8.53421 22.777 8.7311 22.7701C8.928 22.7631 9.12433 22.795 9.30888 22.864C9.49344 22.9329 9.66261 23.0376 9.80673 23.1719C9.95085 23.3062 10.0671 23.4676 10.1489 23.6469C10.2306 23.8261 10.2762 24.0197 10.2832 24.2166C10.2901 24.4135 10.2582 24.6098 10.1892 24.7944C10.1203 24.979 10.0157 25.1481 9.88133 25.2922C9.74701 25.4364 9.58561 25.5526 9.40636 25.6344C8.20073 26.1837 5.54011 27.9519 5.07136 32.93C10.0495 32.4612 11.8214 29.8006 12.367 28.595C12.4487 28.4157 12.565 28.2543 12.7091 28.12C12.8532 27.9857 13.0224 27.8811 13.207 27.8121C13.3915 27.7432 13.5878 27.7113 13.7847 27.7182C13.9816 27.7251 14.1752 27.7707 14.3545 27.8525C14.5337 27.9342 14.6951 28.0505 14.8295 28.1946C14.9638 28.3387 15.0684 28.5079 15.1374 28.6925C15.2063 28.877 15.2382 29.0734 15.2313 29.2702C15.2244 29.4671 15.1787 29.6607 15.097 29.84H15.0951Z" fill="url(#paint0_linear_4261_477)"/>
<defs>
<linearGradient id="paint0_linear_4261_477" x1="18.4319" y1="-0.0039062" x2="18.4319" y2="51.6872" gradientUnits="userSpaceOnUse">
<stop stop-color="white"/>
<stop offset="1" stop-color="#9E9B9B"/>
</linearGradient>
</defs>
</svg>
