<svg width="48" height="48" viewBox="0 0 48 48" fill="none" xmlns="http://www.w3.org/2000/svg">
<path d="M42.3488 19.2787C41.6419 18.54 40.9106 17.7788 40.635 17.1094C40.38 16.4963 40.365 15.48 40.35 14.4956C40.3219 12.6656 40.2919 10.5919 38.85 9.15C37.4081 7.70812 35.3344 7.67812 33.5044 7.65C32.52 7.635 31.5037 7.62 30.8906 7.365C30.2231 7.08937 29.46 6.35812 28.7212 5.65125C27.4275 4.40812 25.9575 3 24 3C22.0425 3 20.5744 4.40812 19.2787 5.65125C18.54 6.35812 17.7788 7.08937 17.1094 7.365C16.5 7.62 15.48 7.635 14.4956 7.65C12.6656 7.67812 10.5919 7.70812 9.15 9.15C7.70812 10.5919 7.6875 12.6656 7.65 14.4956C7.635 15.48 7.62 16.4963 7.365 17.1094C7.08937 17.7769 6.35812 18.54 5.65125 19.2787C4.40812 20.5725 3 22.0425 3 24C3 25.9575 4.40812 27.4256 5.65125 28.7212C6.35812 29.46 7.08937 30.2213 7.365 30.8906C7.62 31.5037 7.635 32.52 7.65 33.5044C7.67812 35.3344 7.70812 37.4081 9.15 38.85C10.5919 40.2919 12.6656 40.3219 14.4956 40.35C15.48 40.365 16.4963 40.38 17.1094 40.635C17.7769 40.9106 18.54 41.6419 19.2787 42.3488C20.5725 43.5919 22.0425 45 24 45C25.9575 45 27.4256 43.5919 28.7212 42.3488C29.46 41.6419 30.2213 40.9106 30.8906 40.635C31.5037 40.38 32.52 40.365 33.5044 40.35C35.3344 40.3219 37.4081 40.2919 38.85 38.85C40.2919 37.4081 40.3219 35.3344 40.35 33.5044C40.365 32.52 40.38 31.5037 40.635 30.8906C40.9106 30.2231 41.6419 29.46 42.3488 28.7212C43.5919 27.4275 45 25.9575 45 24C45 22.0425 43.5919 20.5744 42.3488 19.2787ZM40.1831 26.6456C39.285 27.5831 38.355 28.5525 37.8619 29.7431C37.3894 30.8869 37.3687 32.1937 37.35 33.4594C37.3312 34.7719 37.3106 36.1463 36.7275 36.7275C36.1444 37.3088 34.7794 37.3312 33.4594 37.35C32.1937 37.3687 30.8869 37.3894 29.7431 37.8619C28.5525 38.355 27.5831 39.285 26.6456 40.1831C25.7081 41.0812 24.75 42 24 42C23.25 42 22.2844 41.0775 21.3544 40.1831C20.4244 39.2887 19.4475 38.355 18.2569 37.8619C17.1131 37.3894 15.8063 37.3687 14.5406 37.35C13.2281 37.3312 11.8538 37.3106 11.2725 36.7275C10.6912 36.1444 10.6687 34.7794 10.65 33.4594C10.6312 32.1937 10.6106 30.8869 10.1381 29.7431C9.645 28.5525 8.715 27.5831 7.81687 26.6456C6.91875 25.7081 6 24.75 6 24C6 23.25 6.9225 22.2844 7.81687 21.3544C8.71125 20.4244 9.645 19.4475 10.1381 18.2569C10.6106 17.1131 10.6312 15.8063 10.65 14.5406C10.6687 13.2281 10.6894 11.8538 11.2725 11.2725C11.8556 10.6912 13.2206 10.6687 14.5406 10.65C15.8063 10.6312 17.1131 10.6106 18.2569 10.1381C19.4475 9.645 20.4169 8.715 21.3544 7.81687C22.2919 6.91875 23.25 6 24 6C24.75 6 25.7156 6.9225 26.6456 7.81687C27.5756 8.71125 28.5525 9.645 29.7431 10.1381C30.8869 10.6106 32.1937 10.6312 33.4594 10.65C34.7719 10.6687 36.1463 10.6894 36.7275 11.2725C37.3088 11.8556 37.3312 13.2206 37.35 14.5406C37.3687 15.8063 37.3894 17.1131 37.8619 18.2569C38.355 19.4475 39.285 20.4169 40.1831 21.3544C41.0812 22.2919 42 23.25 42 24C42 24.75 41.0775 25.7156 40.1831 26.6456ZM32.5613 18.4387C32.7007 18.5781 32.8114 18.7435 32.8868 18.9256C32.9623 19.1077 33.0012 19.3029 33.0012 19.5C33.0012 19.6971 32.9623 19.8923 32.8868 20.0744C32.8114 20.2565 32.7007 20.4219 32.5613 20.5613L22.0613 31.0613C21.9219 31.2007 21.7565 31.3114 21.5744 31.3868C21.3923 31.4623 21.1971 31.5012 21 31.5012C20.8029 31.5012 20.6077 31.4623 20.4256 31.3868C20.2435 31.3114 20.0781 31.2007 19.9387 31.0613L15.4387 26.5613C15.1573 26.2798 14.9992 25.898 14.9992 25.5C14.9992 25.102 15.1573 24.7202 15.4387 24.4387C15.7202 24.1573 16.102 23.9992 16.5 23.9992C16.898 23.9992 17.2798 24.1573 17.5613 24.4387L21 27.8794L30.4387 18.4387C30.5781 18.2993 30.7435 18.1886 30.9256 18.1132C31.1077 18.0377 31.3029 17.9988 31.5 17.9988C31.6971 17.9988 31.8923 18.0377 32.0744 18.1132C32.2565 18.1886 32.4219 18.2993 32.5613 18.4387Z" fill="url(#paint0_linear_4208_643)"/>
<defs>
<linearGradient id="paint0_linear_4208_643" x1="23.0828" y1="3" x2="23.0828" y2="60.8919" gradientUnits="userSpaceOnUse">
<stop stop-color="white"/>
<stop offset="1" stop-color="#9E9B9B"/>
</linearGradient>
</defs>
</svg>
