<svg width="42" height="42" viewBox="0 0 42 42" fill="none" xmlns="http://www.w3.org/2000/svg">
<path d="M41.878 10.1395C41.7252 9.66266 41.4335 9.24234 41.0403 8.93234C40.6472 8.62235 40.1704 8.43679 39.6711 8.39945L32.7449 7.85195L30.0805 1.5407C29.8859 1.08366 29.5612 0.69393 29.1468 0.419992C28.7324 0.146054 28.2466 0 27.7499 0C27.2531 0 26.7673 0.146054 26.3529 0.419992C25.9385 0.69393 25.6139 1.08366 25.4192 1.5407L22.7549 7.85195L15.8286 8.39945C15.3312 8.43609 14.8561 8.62004 14.4636 8.92782C14.0712 9.23561 13.7794 9.65329 13.6253 10.1276C13.4712 10.6019 13.4619 11.1114 13.5985 11.591C13.7351 12.0707 14.0115 12.4988 14.3924 12.8207L19.6536 17.2607L18.0486 23.8963C17.9319 24.3769 17.9604 24.8813 18.1307 25.3456C18.3009 25.8099 18.6052 26.2132 19.0049 26.5044C19.4083 26.8018 19.8908 26.9728 20.3915 26.9959C20.8921 27.0189 21.3883 26.8929 21.8174 26.6338L27.7499 23.0619L33.6842 26.6357C34.1135 26.8941 34.6096 27.0196 35.1101 26.9966C35.6105 26.9736 36.093 26.803 36.4967 26.5063C36.8957 26.2145 37.1993 25.8111 37.3692 25.3469C37.539 24.8827 37.5675 24.3786 37.4511 23.8982L35.8461 17.2626L41.1074 12.8226C41.4884 12.5029 41.7653 12.0768 41.9025 11.5987C42.0398 11.1207 42.0313 10.6126 41.878 10.1395ZM33.2024 15.5619C32.9895 15.7418 32.831 15.9775 32.7445 16.2424C32.6581 16.5074 32.6472 16.7911 32.713 17.0619L34.2655 23.4763L28.5242 20.0245C28.2907 19.8839 28.0233 19.8097 27.7508 19.8097C27.4783 19.8097 27.2109 19.8839 26.9774 20.0245L21.2361 23.4801L22.7886 17.0619C22.8542 16.791 22.843 16.5071 22.7562 16.2421C22.6695 15.9771 22.5106 15.7416 22.2974 15.5619L17.2499 11.2982L23.9099 10.7713C24.184 10.7496 24.4468 10.6529 24.6697 10.4919C24.8926 10.3308 25.0669 10.1116 25.1736 9.8582L27.7499 3.73257L30.3355 9.8582C30.4422 10.1116 30.6165 10.3308 30.8394 10.4919C31.0623 10.6529 31.3251 10.7496 31.5992 10.7713L38.2611 11.2982L33.2024 15.5619ZM13.5149 20.0957L2.56111 31.0607C2.27965 31.3422 1.8979 31.5003 1.49986 31.5003C1.10181 31.5003 0.720069 31.3422 0.438608 31.0607C0.157147 30.7792 -0.000976562 30.3975 -0.000976562 29.9994C-0.000976563 29.6014 0.157147 29.2197 0.438608 28.9382L11.398 17.9788C11.6794 17.6974 12.0612 17.5392 12.4592 17.5392C12.8573 17.5392 13.239 17.6974 13.5205 17.9788C13.8019 18.2603 13.9601 18.642 13.9601 19.0401C13.9601 19.4381 13.8019 19.8199 13.5205 20.1013L13.5149 20.0957ZM15.5417 29.4463C15.8228 29.7276 15.9807 30.109 15.9807 30.5066C15.9807 30.9043 15.8228 31.2857 15.5417 31.5669L5.56111 41.5607C5.42174 41.7001 5.25629 41.8106 5.0742 41.886C4.89211 41.9615 4.69695 42.0003 4.49986 42.0003C4.30276 42.0003 4.1076 41.9615 3.92551 41.886C3.74342 41.8106 3.57797 41.7001 3.43861 41.5607C3.29924 41.4213 3.18869 41.2559 3.11327 41.0738C3.03784 40.8917 2.99902 40.6965 2.99902 40.4994C2.99902 40.3024 3.03784 40.1072 3.11327 39.9251C3.18869 39.743 3.29924 39.5776 3.43861 39.4382L13.4267 29.4519C13.708 29.1709 14.0894 29.013 14.487 29.013C14.8847 29.013 15.2661 29.1709 15.5474 29.4519L15.5417 29.4463ZM29.2292 29.2588C29.3687 29.3981 29.4793 29.5636 29.5548 29.7457C29.6303 29.9278 29.6692 30.123 29.6692 30.3201C29.6692 30.5172 29.6303 30.7124 29.5548 30.8945C29.4793 31.0766 29.3687 31.242 29.2292 31.3813L19.0517 41.5588C18.7703 41.8403 18.3885 41.9984 17.9905 41.9984C17.5924 41.9984 17.2107 41.8403 16.9292 41.5588C16.6478 41.2774 16.4896 40.8956 16.4896 40.4976C16.4896 40.0995 16.6478 39.7178 16.9292 39.4363L27.1086 29.2588C27.2482 29.1184 27.4142 29.0069 27.597 28.9309C27.7799 28.8549 27.976 28.8159 28.174 28.8161C28.372 28.8162 28.568 28.8556 28.7508 28.9319C28.9335 29.0082 29.0993 29.12 29.2386 29.2607L29.2292 29.2588Z" fill="url(#paint0_linear_4261_287)"/>
<defs>
<linearGradient id="paint0_linear_4261_287" x1="20.0821" y1="5.9643e-08" x2="20.0821" y2="57.8923" gradientUnits="userSpaceOnUse">
<stop stop-color="white"/>
<stop offset="1" stop-color="#9E9B9B"/>
</linearGradient>
</defs>
</svg>
