<svg width="48" height="48" viewBox="0 0 48 48" fill="none" xmlns="http://www.w3.org/2000/svg">
<path d="M37.0461 24.1987L27.3748 20.625L23.8123 10.9462C23.6013 10.3731 23.2197 9.87849 22.7187 9.5291C22.2178 9.17971 21.6218 8.99238 21.0111 8.99238C20.4003 8.99238 19.8043 9.17971 19.3034 9.5291C18.8025 9.87849 18.4208 10.3731 18.2098 10.9462L14.6248 20.625L4.94606 24.1875C4.37293 24.3985 3.8783 24.7802 3.52891 25.2811C3.17952 25.782 2.99219 26.378 2.99219 26.9888C2.99219 27.5995 3.17952 28.1955 3.52891 28.6964C3.8783 29.1973 4.37293 29.579 4.94606 29.79L14.6248 33.375L18.1873 43.0537C18.3983 43.6269 18.78 44.1215 19.2809 44.4709C19.7818 44.8203 20.3778 45.0076 20.9886 45.0076C21.5993 45.0076 22.1953 44.8203 22.6962 44.4709C23.1972 44.1215 23.5788 43.6269 23.7898 43.0537L27.3748 33.375L37.0536 29.8125C37.6267 29.6015 38.1213 29.2198 38.4707 28.7189C38.8201 28.218 39.0074 27.622 39.0074 27.0112C39.0074 26.4005 38.8201 25.8045 38.4707 25.3036C38.1213 24.8027 37.6267 24.421 37.0536 24.21L37.0461 24.1987ZM25.6873 30.7913C25.4837 30.8663 25.2988 30.9846 25.1454 31.1381C24.9919 31.2915 24.8736 31.4764 24.7986 31.68L20.9998 41.9719L17.2086 31.6875C17.1336 31.4817 17.0146 31.2949 16.8598 31.1401C16.7049 30.9852 16.5181 30.8662 16.3123 30.7913L6.02794 27L16.3123 23.2087C16.5181 23.1338 16.7049 23.0148 16.8598 22.8599C17.0146 22.7051 17.1336 22.5183 17.2086 22.3125L20.9998 12.0281L24.7911 22.3125C24.8661 22.5161 24.9844 22.701 25.1379 22.8545C25.2913 23.0079 25.4762 23.1262 25.6798 23.2013L35.9717 27L25.6873 30.7913ZM26.9998 7.5C26.9998 7.10218 27.1578 6.72064 27.4391 6.43934C27.7205 6.15804 28.102 6 28.4998 6H31.4998V3C31.4998 2.60218 31.6578 2.22064 31.9391 1.93934C32.2205 1.65804 32.602 1.5 32.9998 1.5C33.3976 1.5 33.7792 1.65804 34.0605 1.93934C34.3418 2.22064 34.4998 2.60218 34.4998 3V6H37.4998C37.8976 6 38.2792 6.15804 38.5605 6.43934C38.8418 6.72064 38.9998 7.10218 38.9998 7.5C38.9998 7.89782 38.8418 8.27936 38.5605 8.56066C38.2792 8.84196 37.8976 9 37.4998 9H34.4998V12C34.4998 12.3978 34.3418 12.7794 34.0605 13.0607C33.7792 13.342 33.3976 13.5 32.9998 13.5C32.602 13.5 32.2205 13.342 31.9391 13.0607C31.6578 12.7794 31.4998 12.3978 31.4998 12V9H28.4998C28.102 9 27.7205 8.84196 27.4391 8.56066C27.1578 8.27936 26.9998 7.89782 26.9998 7.5ZM46.4998 16.5C46.4998 16.8978 46.3418 17.2794 46.0605 17.5607C45.7792 17.842 45.3976 18 44.9998 18H43.4998V19.5C43.4998 19.8978 43.3418 20.2794 43.0605 20.5607C42.7792 20.842 42.3976 21 41.9998 21C41.602 21 41.2205 20.842 40.9391 20.5607C40.6578 20.2794 40.4998 19.8978 40.4998 19.5V18H38.9998C38.602 18 38.2205 17.842 37.9391 17.5607C37.6578 17.2794 37.4998 16.8978 37.4998 16.5C37.4998 16.1022 37.6578 15.7206 37.9391 15.4393C38.2205 15.158 38.602 15 38.9998 15H40.4998V13.5C40.4998 13.1022 40.6578 12.7206 40.9391 12.4393C41.2205 12.158 41.602 12 41.9998 12C42.3976 12 42.7792 12.158 43.0605 12.4393C43.3418 12.7206 43.4998 13.1022 43.4998 13.5V15H44.9998C45.3976 15 45.7792 15.158 46.0605 15.4393C46.3418 15.7206 46.4998 16.1022 46.4998 16.5Z" fill="url(#paint0_linear_4208_606)"/>
<defs>
<linearGradient id="paint0_linear_4208_606" x1="23.7959" y1="1.5" x2="23.7959" y2="61.47" gradientUnits="userSpaceOnUse">
<stop stop-color="white"/>
<stop offset="1" stop-color="#9E9B9B"/>
</linearGradient>
</defs>
</svg>
