<svg width="48" height="48" viewBox="0 0 48 48" fill="none" xmlns="http://www.w3.org/2000/svg">
<path d="M44.8459 18.236C44.6583 17.6595 44.3044 17.1514 43.8286 16.7757C43.3528 16.4 42.7764 16.1735 42.1721 16.1247L31.1096 15.2322L26.8384 4.90286C26.6074 4.34002 26.2143 3.85858 25.7089 3.51975C25.2036 3.18092 24.609 3 24.0006 3C23.3922 3 22.7975 3.18092 22.2922 3.51975C21.7869 3.85858 21.3938 4.34002 21.1628 4.90286L16.8953 15.2304L5.82714 16.1247C5.22184 16.1759 4.64512 16.4046 4.16921 16.7821C3.69331 17.1596 3.3394 17.6692 3.15181 18.247C2.96423 18.8247 2.95132 19.445 3.1147 20.0301C3.27808 20.6152 3.61048 21.139 4.07026 21.536L12.5078 28.8166L9.93714 39.7029C9.79337 40.2943 9.82857 40.9151 10.0383 41.4865C10.248 42.0579 10.6227 42.5541 11.1149 42.9121C11.6072 43.2701 12.1946 43.4738 12.8028 43.4973C13.411 43.5208 14.0125 43.3631 14.5309 43.0441L23.9996 37.2166L33.474 43.0441C33.9926 43.3593 34.5928 43.514 35.1991 43.4887C35.8054 43.4634 36.3907 43.2593 36.8813 42.9021C37.3718 42.5449 37.7457 42.0505 37.9558 41.4812C38.166 40.9119 38.2029 40.2931 38.0621 39.7029L35.4821 28.8147L43.9196 21.5341C44.3831 21.1378 44.7186 20.6128 44.8835 20.0257C45.0484 19.4385 45.0353 18.8157 44.8459 18.236ZM41.9696 19.2616L32.8384 27.1366C32.6301 27.3161 32.4752 27.5494 32.3906 27.8109C32.3059 28.0725 32.2948 28.3523 32.3584 28.6197L35.1484 40.3947C35.1556 40.411 35.1563 40.4294 35.1504 40.4461C35.1445 40.4628 35.1323 40.4767 35.1165 40.4847C35.0828 40.511 35.0734 40.5054 35.0453 40.4847L24.7853 34.1754C24.549 34.0301 24.277 33.9532 23.9996 33.9532C23.7223 33.9532 23.4503 34.0301 23.214 34.1754L12.954 40.4885C12.9259 40.5054 12.9184 40.511 12.8828 40.4885C12.8669 40.4804 12.8548 40.4666 12.8489 40.4498C12.8429 40.4331 12.8437 40.4147 12.8509 40.3985L15.6409 28.6235C15.7045 28.356 15.6933 28.0762 15.6087 27.8147C15.524 27.5531 15.3691 27.3199 15.1609 27.1404L6.02964 19.2654C6.00714 19.2466 5.98651 19.2297 6.00526 19.1716C6.02401 19.1135 6.03901 19.121 6.06714 19.1172L18.0521 18.1497C18.327 18.1262 18.5901 18.0272 18.8124 17.8638C19.0347 17.7004 19.2076 17.4788 19.3121 17.2235L23.9284 6.04661C23.9434 6.01474 23.949 5.99974 23.994 5.99974C24.039 5.99974 24.0446 6.01474 24.0596 6.04661L28.6871 17.2235C28.7926 17.4789 28.9667 17.7002 29.19 17.863C29.4133 18.0258 29.6773 18.1237 29.9528 18.146L41.9378 19.1135C41.9659 19.1135 41.9828 19.1135 41.9996 19.1679C42.0165 19.2222 41.9996 19.2429 41.9696 19.2616Z" fill="url(#paint0_linear_4208_539)"/>
<defs>
<linearGradient id="paint0_linear_4208_539" x1="23.0825" y1="3" x2="23.0825" y2="58.8237" gradientUnits="userSpaceOnUse">
<stop stop-color="white"/>
<stop offset="1" stop-color="#9E9B9B"/>
</linearGradient>
</defs>
</svg>
