<svg width="221" height="223" viewBox="0 0 221 223" fill="none" xmlns="http://www.w3.org/2000/svg">
<g clip-path="url(#clip0_4210_1966)" filter="url(#filter0_d_4210_1966)">
<path fill-rule="evenodd" clip-rule="evenodd" d="M93.8055 29.3622C97.0049 31.0774 99.0453 32.182 99.926 32.6761C102.727 34.2077 106.456 34.2918 108.978 32.1991C112.063 29.6502 114.066 27.9987 114.945 27.2576C120.112 22.9872 122.855 24.4855 126.867 29.4301C129.096 32.2595 130.591 34.0608 131.202 34.8275C133.18 37.2823 136.583 38.8435 139.726 37.9081C143.591 36.719 146.049 35.9785 147.133 35.6215C153.592 33.6535 155.548 36.2144 157.296 42.2424C158.276 45.7197 158.908 47.9618 159.224 48.9109C160.087 51.9754 162.637 54.7143 165.89 55.0335C169.904 55.4332 172.449 55.7037 173.619 55.8195C180.282 56.5089 181.134 59.5299 180.386 65.8148C179.975 69.4378 179.732 71.7281 179.579 72.7606C179.22 75.8736 180.514 79.4104 183.376 80.9761C186.927 82.8883 188.557 83.763 189.553 84.3211C193.985 86.7274 194.691 88.7015 192.168 93.0675C191.595 94.0198 190.576 95.8386 188.546 99.3234C186.923 102.153 187.653 105.799 189.598 108.313C190.267 109.113 191.67 110.94 193.9 113.769C197.832 118.785 198.683 121.805 193.36 125.875C192.411 126.538 190.38 128.097 187.178 130.579C184.571 132.55 183.827 136.217 184.677 139.235C184.916 140.256 185.535 142.451 186.528 145.974C188.184 152.028 187.84 155.186 181.304 156.882C180.206 157.191 177.722 157.84 173.806 158.845C170.624 159.643 168.537 162.751 168.132 165.877C168.024 166.896 167.689 169.213 167.266 172.79C166.426 179.101 164.869 181.813 158.232 180.867C157.096 180.694 154.525 180.332 150.55 179.723C147.306 179.254 144.183 181.319 142.581 184.043C142.088 184.924 140.925 186.931 139.091 190.064C137.225 193.257 135.743 195.009 133.912 195.525C132.081 196.04 129.857 195.333 126.6 193.585C123.445 191.857 121.405 190.752 120.48 190.271C117.737 188.773 113.994 188.642 111.473 190.735C108.356 193.342 106.398 194.981 105.52 195.722C100.351 199.995 97.5624 198.507 93.5972 193.55C91.3215 190.733 89.873 188.919 89.2472 188.107C87.2701 185.652 83.8218 184.103 80.6905 185.085C76.8737 186.259 74.3693 187.016 73.272 187.325C66.812 189.292 64.8682 186.779 63.1658 180.738C62.1278 177.227 61.5089 175.031 61.2252 174.024C60.3284 171.018 57.8238 168.266 54.5724 167.948C50.5447 167.502 47.9546 167.245 46.8437 167.163C40.1793 166.471 39.2823 163.464 40.0167 157.133C40.4411 153.556 40.7292 151.253 40.8395 150.233C41.1827 147.075 39.903 143.583 37.0424 142.017C33.49 140.106 31.6728 139.086 30.6875 138.573C26.3011 136.154 25.8709 134.102 28.3488 129.749C28.907 128.752 29.8398 127.156 31.8713 123.67C33.4933 120.841 32.7489 117.149 30.8201 114.681C30.1944 113.869 28.745 112.055 26.5024 109.179C22.5834 104.209 21.778 101.176 27.1013 97.1083C27.9919 96.4117 30.0675 94.84 33.2827 92.4023C35.8891 90.432 36.5885 86.7775 35.7708 83.7001C35.4998 82.7382 34.8682 80.4969 33.9332 77.0062C32.2309 70.9651 32.5633 67.7594 39.1 66.0653C40.2107 65.8037 42.7411 65.1385 46.6096 64.1484C49.7798 63.3047 51.9122 60.1835 52.3166 57.0576C52.4383 56.0843 52.7272 53.7803 53.1975 50.1903C53.9909 43.8924 55.593 41.1687 62.2317 42.1122C63.3675 42.2856 65.8934 42.6608 69.9002 43.2112C73.1425 43.6795 76.2799 41.6606 77.8242 38.9044C78.3616 38.0107 79.5253 36.004 81.313 32.8825C83.1794 29.6884 84.6617 27.9383 86.5378 27.4097C88.4139 26.881 90.5467 27.6123 93.8063 29.3619L93.8055 29.3622Z" fill="url(#paint0_linear_4210_1966)"/>
<path fill-rule="evenodd" clip-rule="evenodd" d="M144.695 89.6414C142.68 91.8871 140.768 94.3095 138.881 96.8258C128.398 110.928 119.96 129.392 113.497 152.337C100.038 142.692 84.0167 134.786 65.4445 128.668C68.9407 124.274 71.0824 121.582 73.2263 118.891C79.2292 111.295 88.0165 110.143 95.9248 115.448C99.5039 117.85 102.034 119.783 104.362 121.722C110.518 94.0788 119.772 73.4514 132.085 59.7003C137.189 73.4815 141.386 83.4968 144.695 89.6405L144.695 89.6414Z" fill="#E65E10"/>
<path fill-rule="evenodd" clip-rule="evenodd" d="M144.695 89.6414C142.68 91.8871 140.768 94.3095 138.881 96.8258C128.398 110.928 119.96 129.392 113.497 152.337C100.038 142.692 84.0167 134.786 65.4445 128.668C68.9407 124.274 71.0824 121.582 73.2263 118.891C79.2292 111.295 88.0165 110.143 95.9248 115.448C99.5039 117.85 102.034 119.783 104.362 121.722C110.518 94.0788 119.772 73.4514 132.085 59.7003C137.189 73.4815 141.386 83.4968 144.695 89.6405L144.695 89.6414Z" fill="url(#paint1_linear_4210_1966)"/>
<path fill-rule="evenodd" clip-rule="evenodd" d="M132.085 59.703C140.79 75.4219 145.419 86.4348 150.177 92.1191C130.698 111.504 124.665 123.69 113.497 152.338C96.9174 142.81 82.1046 137.21 69.0956 135.482L70.7427 130.487C87.0469 136.328 101.315 143.606 113.497 152.338C121.099 125.306 131.499 104.406 144.696 89.6432C141.387 83.4995 137.19 73.4842 132.085 59.703Z" fill="url(#paint2_linear_4210_1966)"/>
<path d="M102.334 177.932L104.931 178.116L111.285 165.076L108.129 164.897L103.978 174.008L101.159 164.366L97.9426 164.154L102.334 177.933L102.334 177.932ZM117.637 178.047L127.585 175.956L127.056 173.357L119.958 174.899L119.389 172.157L125.532 170.834L124.967 168.295L118.813 169.571L118.271 166.923L125.242 165.469L124.713 162.869L114.874 164.979L117.638 178.045L117.637 178.047ZM135.024 173.453L137.673 172.197L135.823 168.342L137.885 167.354L142.352 170.013L145.445 168.531L140.449 165.612C141.718 164.337 142.189 162.578 141.288 160.642C140.707 159.483 139.923 158.685 138.914 158.359C137.772 157.917 136.384 158.053 134.801 158.754L129.327 161.366L135.024 173.453L135.024 173.453ZM134.754 165.995L133.105 162.489L135.72 161.294C137.021 160.674 138.098 160.879 138.619 162.005C139.126 163.082 138.706 164.118 137.451 164.725L134.754 165.994L134.754 165.995ZM151.439 163.788L153.701 161.877L145.075 151.684L142.849 153.534L151.439 163.788ZM159.873 155.965L161.671 153.676L157.617 150.493L161.544 145.465L159.451 143.816L155.524 148.842L153.294 147.078L157.751 141.394L155.611 139.758L149.358 147.73L159.873 155.965ZM169.872 141.235L171.053 138.562L158.838 133.148L157.611 135.836L169.872 141.236L169.872 141.235ZM174.144 130.566L176.395 120.667L173.831 120.066L172.271 127.173L169.495 126.531L170.918 120.378L168.369 119.823L166.946 125.976L164.325 125.339L165.923 118.374L163.375 117.819L161.146 127.609L174.144 130.564L174.144 130.566ZM177.088 112.837L176.744 107.64C176.429 103.453 173.33 100.763 169.58 101.005C165.784 101.261 163.141 104.347 163.409 108.547L163.753 113.744L177.088 112.837ZM174.272 110.067L166.242 110.65L166.055 108.362C165.887 105.965 167.443 104.255 169.779 104.055C172.187 103.936 173.932 105.429 174.099 107.825L174.272 110.067ZM56.526 115.811L56.3062 113.226L42.4525 109.038L42.7377 112.214L52.3845 114.841L43.3246 119.176L43.6217 122.401L56.526 115.811ZM56.4483 103.973L58.8064 94.0949L56.2453 93.4947L54.5645 100.534L51.8334 99.8778L53.2696 93.7718L50.7551 93.1584L49.2854 99.3241L46.664 98.6879L48.3112 91.7072L45.7474 91.1069L43.4245 100.922L56.4489 103.972L56.4483 103.973ZM60.2749 89.9143L61.6844 87.3288L57.951 85.2769L59.067 83.2826L64.2372 82.8427L65.8852 79.8339L60.1204 80.3373C60.3906 78.5814 59.8042 76.8632 57.8833 75.8261C56.7942 75.2173 55.6727 75.0248 54.6483 75.3646C53.4701 75.6966 52.403 76.6072 51.5431 78.072L48.6227 83.424L60.2755 89.9133L60.2749 89.9143ZM55.7145 84.0237L52.3288 82.1267L53.7514 79.5877C54.4625 78.3174 55.4596 77.884 56.5483 78.4947C57.5749 79.0699 57.8334 80.1684 57.17 81.4234L55.7136 84.024L55.7145 84.0237ZM68.7274 76.7406L70.649 74.5211L60.6268 65.6898L58.6603 67.922L68.7276 76.7414L68.7274 76.7406ZM74.2342 70.8121L76.5975 69.078L73.5371 64.901L78.6912 61.158L77.1166 59.0045L71.9619 62.7485L70.2887 60.4201L76.1168 56.1822L74.5444 54.0298L66.353 60.0018L74.2342 70.8121ZM86.2833 62.9889L88.9331 61.7337L83.1405 49.672L80.5036 50.9765L86.2833 62.9889ZM93.7029 59.8793L103.672 57.6817L103.048 55.1077L96.0096 56.684L95.3932 53.9555L101.524 52.5857L100.959 50.0463L94.8303 51.4172L94.2408 48.7843L101.233 47.2212L100.656 44.6339L90.7961 46.8528L93.7018 59.8787L93.7029 59.8793ZM108.053 57.5153L113.255 57.7289C117.48 57.9132 120.465 55.1376 120.627 51.3762C120.822 47.5545 118.047 44.5699 113.822 44.3856L108.62 44.1718L108.054 57.515L108.053 57.5153ZM111.104 54.9757L111.437 46.9411L113.745 47.0044C116.126 47.1469 117.674 48.8489 117.578 51.2167C117.497 53.6333 115.793 55.1807 113.378 55.0989L111.104 54.9757Z" fill="#010101"/>
<path d="M146.848 59.7149L150.567 62.4335L154.753 60.4917L153.325 64.8133L156.469 68.2028L151.89 68.2194L149.67 72.2558L148.232 67.8771L143.712 67.0119L147.378 64.3001L146.848 59.7149Z" fill="#010101"/>
<path d="M65.3466 157.764L62.0186 154.63L57.6263 156.019L59.5586 151.861L56.8817 148.135L61.4147 148.69L64.1471 145.02L65.0528 149.497L69.3885 150.975L65.3748 153.173L65.3466 157.764Z" fill="#010101"/>
</g>
<defs>
<filter id="filter0_d_4210_1966" x="-4" y="0.660156" width="228.439" height="229.617" filterUnits="userSpaceOnUse" color-interpolation-filters="sRGB">
<feFlood flood-opacity="0" result="BackgroundImageFix"/>
<feColorMatrix in="SourceAlpha" type="matrix" values="0 0 0 0 0 0 0 0 0 0 0 0 0 0 0 0 0 0 127 0" result="hardAlpha"/>
<feOffset dy="4"/>
<feGaussianBlur stdDeviation="2"/>
<feComposite in2="hardAlpha" operator="out"/>
<feColorMatrix type="matrix" values="0 0 0 0 0 0 0 0 0 0 0 0 0 0 0 0 0 0 0.25 0"/>
<feBlend mode="normal" in2="BackgroundImageFix" result="effect1_dropShadow_4210_1966"/>
<feBlend mode="normal" in="SourceGraphic" in2="effect1_dropShadow_4210_1966" result="shape"/>
</filter>
<linearGradient id="paint0_linear_4210_1966" x1="82.8953" y1="28.4361" x2="148.196" y2="260.162" gradientUnits="userSpaceOnUse">
<stop stop-color="white"/>
<stop offset="1" stop-color="#9E9B9B"/>
</linearGradient>
<linearGradient id="paint1_linear_4210_1966" x1="63.7503" y1="122.656" x2="147.359" y2="99.095" gradientUnits="userSpaceOnUse">
<stop stop-color="#E65E10" stop-opacity="0"/>
<stop offset="1" stop-color="#FF9355"/>
</linearGradient>
<linearGradient id="paint2_linear_4210_1966" x1="95.2773" y1="70.0756" x2="126.727" y2="181.679" gradientUnits="userSpaceOnUse">
<stop stop-color="white"/>
<stop offset="1" stop-color="#9E9B9B"/>
</linearGradient>
<clipPath id="clip0_4210_1966">
<rect width="178.301" height="180" fill="white" transform="translate(0 49.0234) rotate(-15.7379)"/>
</clipPath>
</defs>
</svg>
