<svg width="48" height="48" viewBox="0 0 48 48" fill="none" xmlns="http://www.w3.org/2000/svg">
<path d="M41.6008 15.5913C43.6823 19.9447 44.0775 24.9148 42.71 29.5424C41.3425 34.1699 38.3094 38.127 34.196 40.6497C30.0826 43.1725 25.1805 44.0821 20.4358 43.2031C15.6911 42.3241 11.4403 39.7187 8.50357 35.8898C5.56689 32.0609 4.15259 27.2799 4.53364 22.4696C4.91469 17.6593 7.06407 13.1606 10.567 9.84179C14.0698 6.52301 18.6779 4.61939 23.5018 4.49834C28.3257 4.37728 33.0234 6.04738 36.6883 9.18629L40.939 4.93379C41.2204 4.65233 41.6022 4.49421 42.0002 4.49421C42.3983 4.49421 42.78 4.65233 43.0615 4.93379C43.3429 5.21525 43.5011 5.597 43.5011 5.99504C43.5011 6.39309 43.3429 6.77483 43.0615 7.05629L25.0615 25.0563C24.78 25.3378 24.3983 25.4959 24.0002 25.4959C23.6022 25.4959 23.2204 25.3378 22.939 25.0563C22.6575 24.7748 22.4994 24.3931 22.4994 23.995C22.4994 23.597 22.6575 23.2153 22.939 22.9338L28.1365 17.7363C26.7279 16.8047 25.0461 16.3758 23.3634 16.5189C21.6807 16.6621 20.0956 17.369 18.8646 18.5251C17.6337 19.6813 16.8289 21.2191 16.5807 22.8895C16.3324 24.5599 16.6552 26.2653 17.4968 27.7294C18.3384 29.1936 19.6495 30.3308 21.2178 30.9571C22.7862 31.5834 24.52 31.6621 26.1386 31.1803C27.7572 30.6986 29.1659 29.6847 30.1366 28.3028C31.1072 26.9208 31.5831 25.2517 31.4871 23.5657C31.476 23.3687 31.5038 23.1714 31.569 22.9852C31.6341 22.799 31.7353 22.6274 31.8668 22.4803C31.9982 22.3332 32.1574 22.2134 32.3351 22.1278C32.5129 22.0421 32.7057 21.9924 32.9027 21.9813C33.3005 21.9589 33.691 22.0955 33.9881 22.361C34.1352 22.4924 34.255 22.6516 34.3406 22.8293C34.4262 23.0071 34.476 23.1999 34.4871 23.3969C34.6238 25.7834 33.9422 28.1451 32.5549 30.0917C31.1675 32.0382 29.1575 33.4532 26.8571 34.1026C24.5566 34.7521 22.1034 34.5972 19.903 33.6635C17.7025 32.7298 15.8864 31.0732 14.755 28.9676C13.6236 26.8619 13.2445 24.4333 13.6803 22.083C14.1162 19.7327 15.341 17.6014 17.1522 16.0415C18.9635 14.4816 21.2527 13.5864 23.6417 13.5039C26.0306 13.4213 28.3763 14.1564 30.2908 15.5875L34.5565 11.3219C31.4305 8.72654 27.4558 7.3776 23.3958 7.53418C19.3359 7.69077 15.4769 9.34185 12.5601 12.1703C9.64326 14.9987 7.87429 18.8051 7.59292 22.8583C7.31155 26.9116 8.53762 30.9259 11.0356 34.1302C13.5337 37.3345 17.1275 39.503 21.1269 40.219C25.1263 40.9351 29.2492 40.1483 32.7038 38.0097C36.1585 35.8711 38.7012 32.5316 39.8436 28.6326C40.986 24.7335 40.6476 20.5498 38.8933 16.885C38.7218 16.526 38.6999 16.1135 38.8324 15.7383C38.965 15.3631 39.2412 15.056 39.6002 14.8844C39.9593 14.7129 40.3717 14.6909 40.7469 14.8235C41.1221 14.9561 41.4293 15.2323 41.6008 15.5913Z" fill="url(#paint0_linear_4208_523)"/>
<defs>
<linearGradient id="paint0_linear_4208_523" x1="23.139" y1="4.49219" x2="23.139" y2="58.3007" gradientUnits="userSpaceOnUse">
<stop stop-color="white"/>
<stop offset="1" stop-color="#9E9B9B"/>
</linearGradient>
</defs>
</svg>
