<svg width="32" height="24" viewBox="0 0 32 24" fill="none" xmlns="http://www.w3.org/2000/svg">
<path d="M31.6812 5.59844C31.6812 5.59844 31.3688 3.39219 30.4062 2.42344C29.1875 1.14844 27.825 1.14219 27.2 1.06719C22.725 0.742187 16.0063 0.742188 16.0063 0.742188H15.9937C15.9937 0.742188 9.275 0.742187 4.8 1.06719C4.175 1.14219 2.8125 1.14844 1.59375 2.42344C0.63125 3.39219 0.325 5.59844 0.325 5.59844C0.325 5.59844 0 8.19219 0 10.7797V13.2047C0 15.7922 0.31875 18.3859 0.31875 18.3859C0.31875 18.3859 0.63125 20.5922 1.5875 21.5609C2.80625 22.8359 4.40625 22.7922 5.11875 22.9297C7.68125 23.1734 16 23.2484 16 23.2484C16 23.2484 22.725 23.2359 27.2 22.9172C27.825 22.8422 29.1875 22.8359 30.4062 21.5609C31.3688 20.5922 31.6812 18.3859 31.6812 18.3859C31.6812 18.3859 32 15.7984 32 13.2047V10.7797C32 8.19219 31.6812 5.59844 31.6812 5.59844ZM12.6938 16.1484V7.15469L21.3375 11.6672L12.6938 16.1484Z" fill="white"/>
</svg>
